<svg width="140" height="58" viewBox="0 0 140 58" fill="none" xmlns="http://www.w3.org/2000/svg">
<path d="M73.8182 27.4045C72.3635 27.4045 70.9497 27.4141 69.5347 27.3877C69.4147 27.3853 69.2166 27.1606 69.1938 27.0177C69.0402 26.047 68.5217 25.3839 67.5712 25.1497C66.4874 24.8818 65.412 24.8842 64.5347 25.7239C63.6718 26.5492 63.7822 27.8177 64.8515 28.3319C65.7373 28.7572 66.7322 28.9554 67.6792 29.2557C68.7426 29.5933 69.8383 29.8552 70.8609 30.2888C72.6636 31.0528 73.8458 32.343 73.889 34.4297C73.931 36.4347 72.9648 37.8486 71.2894 38.8409C68.733 40.3557 63.6214 40.5467 60.9509 38.0817C59.9188 37.129 59.1975 36.013 59.0534 34.5823C59.0402 34.4465 59.051 34.3096 59.051 34.1342H63.3213C63.9202 36.353 65.7877 37.3296 67.9888 36.5644C68.7522 36.2989 69.315 35.816 69.3907 34.9439C69.4579 34.1786 69.0954 33.554 68.1701 33.226C66.9327 32.7875 65.6329 32.5281 64.3871 32.1124C63.5217 31.8241 62.648 31.4913 61.8679 31.0276C59.0006 29.3218 58.7462 25.6302 61.3266 23.4991C63.1737 21.9722 65.3604 21.6683 67.6564 21.8701C69.5167 22.0335 71.221 22.5969 72.528 24.0192C73.3837 24.9514 73.8458 26.0458 73.817 27.4069L73.8182 27.4045Z" fill="white"/>
<path d="M108.293 39.585H103.773V14.8418H108.293V39.585Z" fill="white"/>
<path d="M139.997 26.2239C139.115 26.2239 138.345 26.1302 137.609 26.2516C136.921 26.3657 136.224 26.6228 135.62 26.9724C135.018 27.3207 134.728 27.9286 134.734 28.6938C134.761 32.0755 134.746 35.4583 134.746 38.84C134.746 39.0755 134.746 39.3109 134.746 39.5776H130.164V22.1924H134.458C134.515 22.8423 134.569 23.4646 134.626 24.1229C135.103 23.6195 135.487 23.1306 135.951 22.739C137.039 21.8188 138.319 21.6494 139.674 21.9461C139.805 21.9749 139.983 22.1984 139.985 22.3341C140.009 23.6111 140 24.8893 140 26.2239H139.997Z" fill="white"/>
<path d="M94.9844 22.1777H99.5211V39.5798H94.9844V22.1777Z" fill="white"/>
<path d="M97.2283 19.8785C95.4245 19.8749 94.2987 18.5595 94.7343 16.9269C94.8184 16.6122 95.002 16.2987 95.2156 16.0488C95.9741 15.161 97.6112 14.9508 98.6914 15.5695C99.6395 16.1112 100.056 17.1708 99.7451 18.2484C99.4535 19.2587 98.4909 19.8821 97.2283 19.8797V19.8785Z" fill="white"/>
<path d="M91.0756 33.3337C91.0552 31.5726 91.0732 29.8103 91.0708 28.0492C91.0684 25.7607 90.2846 23.847 88.1699 22.7839C87.2134 22.3021 86.1032 22.0102 85.035 21.8901C82.5746 21.6138 80.2475 22.0643 78.302 23.7425C77.2398 24.6579 76.6685 25.828 76.6121 27.2839H81.2124C81.2916 26.3589 81.7177 25.6826 82.5854 25.3402C84.6258 24.533 86.3468 25.6622 86.414 27.8437C86.4212 28.084 86.402 28.3255 86.4188 28.5645C86.4428 28.9057 86.294 29.0174 85.9616 29.0126C85.0422 29.0018 84.1205 28.9814 83.2023 29.0294C81.6757 29.1075 80.1827 29.3718 78.824 30.1262C75.7204 31.8489 75.2619 36.1315 77.9335 38.4752C79.4542 39.8087 81.2652 40.1174 83.2047 39.8724C84.5237 39.7054 85.5943 39.0339 86.5377 38.0368C86.6877 38.4885 86.7993 38.8873 86.9589 39.2669C87.0165 39.4051 87.187 39.5901 87.3082 39.5913C88.7628 39.6141 90.2186 39.6057 91.8329 39.6057C90.8427 37.5022 91.1008 35.4011 91.0768 33.3325L91.0756 33.3337ZM86.3984 34.5134C86.3912 34.7296 86.2412 34.9626 86.102 35.1464C85.2955 36.218 83.7004 36.7598 82.3982 36.4234C81.5617 36.2072 80.988 35.5873 80.8872 34.7608C80.7516 33.6544 81.084 32.7414 82.0646 32.1444C82.349 31.9714 82.6779 31.8044 83.0007 31.7708C84.1049 31.6567 85.2138 31.6038 86.414 31.5221C86.414 32.6405 86.432 33.5775 86.3996 34.5122L86.3984 34.5134Z" fill="white"/>
<path d="M127.35 32.3166C127.35 31.1057 127.444 29.9981 127.334 28.9121C126.963 25.2602 124.908 22.2822 120.741 21.8653C116.936 21.4845 113.5 23.1531 112.126 27.2099C111.535 28.9518 111.457 30.7405 111.634 32.5473C111.816 34.4201 112.574 36.0382 113.847 37.4282C116.589 40.4206 121.801 40.566 124.668 38.8769C125.585 38.3363 126.411 37.6984 127.018 36.7867C126.622 36.3542 126.261 35.9542 125.893 35.5589C125.533 35.1721 125.167 34.7901 124.802 34.4045C123.049 36.2124 120.615 36.8407 118.764 36.0022C117.32 35.3475 116.251 33.7534 116.349 32.3166H127.35ZM116.173 29.2485C116.497 28.38 116.684 27.6147 117.05 26.948C117.757 25.6614 118.999 25.1941 120.539 25.5064C121.764 25.7551 122.623 26.7378 122.823 28.1181C122.933 28.8709 122.62 29.2473 121.885 29.2473H117.031C116.815 29.2473 116.599 29.2473 116.172 29.2473L116.173 29.2485Z" fill="white"/>
<path d="M3.40567 40.9915C3.61211 41.0348 3.81974 41.0732 4.02377 41.1237C7.17306 41.9033 10.3128 41.8721 13.4453 41.0191C16.8202 40.099 19.9791 38.5913 23.2568 37.4092C24.6958 36.8903 26.1853 36.4939 27.6771 36.1491C28.8101 35.8872 29.9058 36.2067 30.896 36.793C32.8799 37.969 34.937 38.9613 37.1934 39.5031C37.9483 39.6845 37.9399 39.7302 37.7311 40.4846C37.0806 42.8343 35.7952 44.7504 33.9205 46.3037C32.3422 47.6107 30.5419 47.8473 28.6828 47.2935C27.4191 46.9175 26.2105 46.2965 25.0451 45.6598C22.6891 44.372 20.2527 44.1437 17.7599 45.0435C16.3413 45.5553 15.0223 46.3385 13.6229 46.9103C11.2165 47.8942 8.92174 47.8329 6.7362 46.1859C5.5156 45.2669 4.61786 44.1557 3.97096 42.8043C3.71172 42.2625 3.46688 41.7135 3.21484 41.1681C3.27845 41.1092 3.34326 41.0504 3.40687 40.9927L3.40567 40.9915ZM25.848 42.3394C25.8504 43.6536 27.0566 44.8717 28.33 44.8453C29.7378 44.8165 30.8876 43.6536 30.878 42.2661C30.8684 40.9158 29.739 39.8154 28.3624 39.8154C26.9942 39.8154 25.8456 40.9675 25.8468 42.3394H25.848Z" fill="white"/>
<path d="M17.1562 11.6992V35.8045C11.783 32.0685 6.67258 33.0704 1.54297 36.4556C1.59938 36.1205 1.61498 35.9186 1.66779 35.7276C2.23908 33.6446 3 31.636 4.00216 29.7199C4.82429 28.1486 5.5876 26.5461 6.45654 25.0012C7.99518 22.2647 9.83627 19.7287 11.8826 17.3549C13.444 15.5446 15.1027 13.8183 16.7218 12.0584C16.8082 11.9647 16.921 11.8938 17.1562 11.7004V11.6992Z" fill="white"/>
<path d="M38.5379 34.4534C34.12 30.7137 29.3961 29.1304 23.8164 31.3781V11.7812C30.5411 18.2238 35.7295 25.4737 38.5379 34.4534Z" fill="white"/>
<path d="M19.6667 35.5932C19.6667 34.3619 19.6667 33.1473 19.6667 31.9316C19.6643 24.3238 19.6583 16.7172 19.6607 9.10932C19.6607 6.5073 19.6847 3.90408 19.6991 1.30206C19.7039 0.411901 20.0052 0.194468 20.8021 0.595703C21.4382 0.91645 22.0863 1.26843 22.6192 1.73453C24.327 3.23015 26.1837 3.17369 28.1616 2.4385C28.5445 2.29674 28.9778 2.29194 29.387 2.22346C29.2934 2.64993 29.2778 3.11483 29.0918 3.49684C28.5049 4.70415 27.4727 5.51983 26.2617 5.93909C24.9811 6.38236 23.5937 6.47006 22.2903 5.89824C21.3062 5.46697 21.2078 5.4946 21.209 6.55775C21.2186 11.7209 21.233 16.8853 21.2414 22.0485C21.2474 25.9924 21.2534 29.9363 21.245 33.8789C21.2426 35.1391 21.0325 35.3541 19.6655 35.592L19.6667 35.5932Z" fill="white"/>
<path d="M30.9469 53.1317C29.1622 52.9815 27.4567 52.8193 25.8305 52.0793C24.1142 51.2985 22.2815 50.8432 20.3756 50.8961C18.6365 50.9429 16.9947 51.4583 15.408 52.1406C13.3725 53.0152 11.2494 53.2614 9.07583 52.9767C7.20593 52.7316 5.40805 52.2187 3.76139 51.2468C2.28996 50.3783 1.09217 49.2359 0.169227 47.8051C0.0624103 47.6393 0.0540085 47.4099 0 47.2093C0.205232 47.16 0.408064 47.0723 0.614496 47.0651C2.29356 47.0111 3.67378 47.8051 5.0732 48.598C8.72777 50.6666 12.4112 50.6017 16.1077 48.67C16.8663 48.2736 17.6548 47.924 18.4541 47.6189C20.4752 46.8465 22.4123 47.1756 24.2906 48.1379C25.2316 48.6196 26.1461 49.2034 27.1435 49.517C30.1799 50.4708 33.1636 50.3939 35.9793 48.7097C36.5097 48.3925 37.0354 48.067 37.5695 47.7571C38.4432 47.2489 39.3938 47.0675 40.3924 47.1312C40.6204 47.1456 40.846 47.2165 41.0729 47.2621C41.0069 47.5228 41.0165 47.8484 40.8604 48.0334C40.1931 48.8238 39.5594 49.6743 38.7637 50.3182C36.4833 52.1658 33.7889 52.9515 30.9445 53.1329L30.9469 53.1317Z" fill="#39B5FF"/>
<path d="M32.2518 55.7597C31.9421 55.9471 31.6493 56.1729 31.3204 56.3147C28.7784 57.4054 26.1728 57.94 23.3932 57.3586C21.6217 56.9874 19.8346 57.0595 18.0343 57.3442C15.0531 57.8163 12.1438 57.6013 9.46379 56.0191C9.29697 55.9206 9.12414 55.8317 8.95612 55.7344C8.94772 55.7296 8.95251 55.6996 8.94531 55.5999C9.13374 55.5999 9.31737 55.5903 9.501 55.6011C11.6157 55.7272 13.6621 55.4701 15.6748 54.7458C17.1126 54.228 18.6044 53.7691 20.1095 53.5649C21.1128 53.4279 22.2074 53.691 23.218 53.9457C24.4109 54.246 25.5427 54.789 26.7297 55.1206C28.3128 55.5626 29.9402 55.738 31.5893 55.6059C31.7933 55.5891 31.9997 55.6035 32.2062 55.6035C32.2218 55.6551 32.2362 55.7068 32.2518 55.7585V55.7597Z" fill="#39B5FF"/>
</svg>
